<svg xmlns="http://www.w3.org/2000/svg" viewBox="0 0 640 520">
  <defs>
    <linearGradient id="bg" x1="0" y1="0" x2="1" y2="1"><stop offset="0" stop-color="#fff8f3"/><stop offset="1" stop-color="#ffd9d0"/></linearGradient>
    <linearGradient id="dress" x1="0" y1="0" x2="0" y2="1"><stop offset="0" stop-color="#ffd7da"/><stop offset=".6" stop-color="#f7aebc"/><stop offset="1" stop-color="#e8899d"/></linearGradient>
    <filter id="shadow" x="-20%" y="-20%" width="140%" height="140%"><feDropShadow dx="0" dy="12" stdDeviation="16" flood-color="#b77073" flood-opacity=".25"/></filter>
  </defs>
  <rect width="640" height="520" rx="34" fill="url(#bg)"/>
  <path d="M0 430 C170 380 320 450 640 385 L640 520 L0 520Z" fill="#fff1e9" opacity=".7"/>
  <path d="M74 54 C168 96 224 86 276 42 C332 118 438 114 552 52" fill="none" stroke="#e8b889" stroke-width="4" opacity=".45"/>
  <g stroke="#f3c6ae" stroke-width="2" opacity=".55"><path d="M98 96h444"/><path d="M122 420h396"/></g>
  <g filter="url(#shadow)">
    <path d="M319 88c-17 0-29 13-29 31v48h58v-48c0-18-12-31-29-31Z" fill="#d0a47d"/>
    <path d="M280 168c21 18 59 18 80 0l34 64c-43 27-106 27-149 0l35-64Z" fill="#fff6f2" stroke="#cd8a7a" stroke-width="4"/>
    <path d="M244 229c-35 50-82 146-112 224h376c-32-85-79-176-113-224-44 29-107 29-151 0Z" fill="url(#dress)" stroke="#c97983" stroke-width="5"/>
    <path d="M205 288c40 28 187 30 229 0" fill="none" stroke="#fff9f6" stroke-width="7" opacity=".8"/>
    <path d="M188 351c67 30 199 32 267 0" fill="none" stroke="#fff9f6" stroke-width="6" opacity=".75"/>
    <g fill="none" stroke="#ffdfe4" stroke-width="3" opacity=".9"><path d="M251 238c-8 62-20 134-38 215"/><path d="M320 246v207"/><path d="M389 238c9 61 22 133 38 215"/></g>
    <g fill="#fff2f4" opacity=".9"><circle cx="245" cy="300" r="7"/><circle cx="320" cy="328" r="7"/><circle cx="395" cy="300" r="7"/><circle cx="284" cy="384" r="6"/><circle cx="354" cy="384" r="6"/></g>
    <path d="M304 210c16 17 29 17 46 0" fill="none" stroke="#b86d6e" stroke-width="5" stroke-linecap="round"/>
    <path d="M310 209c-25-22-48 0-34 21 23 0 31-9 34-21Zm20 0c25-22 48 0 34 21-23 0-31-9-34-21Z" fill="#ffd4db" stroke="#bf7778" stroke-width="3"/>
  </g>
</svg>
