<svg xmlns="http://www.w3.org/2000/svg" viewBox="0 0 640 520">
  <defs>
    <linearGradient id="bg" x1="0" y1="0" x2="1" y2="1"><stop offset="0" stop-color="#fffaf7"/><stop offset="1" stop-color="#ffe2d8"/></linearGradient>
    <radialGradient id="gem" cx="45%" cy="35%" r="60%"><stop offset="0" stop-color="#fff7fb"/><stop offset=".45" stop-color="#ffbfd0"/><stop offset="1" stop-color="#d86c8e"/></radialGradient>
    <filter id="shadow" x="-20%" y="-20%" width="140%" height="140%"><feDropShadow dx="0" dy="12" stdDeviation="12" flood-color="#915d35" flood-opacity=".18"/></filter>
  </defs>
  <rect width="640" height="520" rx="34" fill="url(#bg)"/>
  <path d="M74 86c110 82 388 82 492 0" fill="none" stroke="#d5a267" stroke-width="7" stroke-linecap="round"/>
  <path d="M112 104c86 136 326 137 416 0" fill="none" stroke="#ecc285" stroke-width="5" stroke-linecap="round"/>
  <g filter="url(#shadow)">
    <ellipse cx="320" cy="300" rx="44" ry="63" fill="url(#gem)" stroke="#b8793e" stroke-width="7"/>
    <path d="M281 301h78M320 239v122M292 260l56 80M348 260l-56 80" stroke="#fff6f7" stroke-width="3" opacity=".65"/>
    <path d="M295 231h50l19 38h-88Z" fill="#ffe5a8" stroke="#b8793e" stroke-width="6"/>
    <g stroke="#d5a267" stroke-width="7" fill="none" stroke-linecap="round"><path d="M178 190v104"/><path d="M462 190v104"/></g>
    <g fill="url(#gem)" stroke="#b8793e" stroke-width="6"><ellipse cx="178" cy="327" rx="33" ry="47"/><ellipse cx="462" cy="327" rx="33" ry="47"/></g>
    <g fill="#ffe6b5" stroke="#b8793e" stroke-width="4"><circle cx="178" cy="177" r="16"/><circle cx="462" cy="177" r="16"/><circle cx="320" cy="214" r="15"/></g>
    <g fill="#f6cbd2" opacity=".6"><circle cx="118" cy="406" r="10"/><circle cx="522" cy="408" r="10"/><circle cx="400" cy="430" r="7"/><circle cx="240" cy="430" r="7"/></g>
  </g>
</svg>
