<svg xmlns="http://www.w3.org/2000/svg" viewBox="0 0 640 520">
  <defs>
    <linearGradient id="bg" x1="0" y1="0" x2="1" y2="1"><stop offset="0" stop-color="#fff8f4"/><stop offset="1" stop-color="#ffe0d6"/></linearGradient>
    <linearGradient id="bag" x1="0" y1="0" x2="1" y2="1"><stop offset="0" stop-color="#ffd2d6"/><stop offset=".55" stop-color="#f0a5b1"/><stop offset="1" stop-color="#d77a8d"/></linearGradient>
    <filter id="shadow" x="-20%" y="-20%" width="140%" height="140%"><feDropShadow dx="0" dy="16" stdDeviation="18" flood-color="#a65d62" flood-opacity=".28"/></filter>
  </defs>
  <rect width="640" height="520" rx="34" fill="url(#bg)"/>
  <g opacity=".45" stroke="#e8bb8a" stroke-width="4" fill="none"><path d="M62 122h516"/><path d="M106 402h430"/><path d="M92 78c64 52 130 47 181 4 60 56 143 57 230 0"/></g>
  <g filter="url(#shadow)">
    <path d="M234 202c-2-82 177-82 173 0" fill="none" stroke="#b86e5d" stroke-width="24" stroke-linecap="round"/>
    <rect x="142" y="186" width="356" height="240" rx="42" fill="url(#bag)" stroke="#b96366" stroke-width="6"/>
    <path d="M142 267h356" stroke="#bd6b70" stroke-width="5" opacity=".6"/>
    <g stroke="#ffdce1" stroke-width="5" opacity=".7"><path d="M168 210l310 190"/><path d="M238 195l260 160"/><path d="M318 190l176 110"/><path d="M470 205L176 398"/><path d="M398 190L150 350"/><path d="M322 188L150 300"/></g>
    <g fill="#ffe2b5" stroke="#a96d36" stroke-width="4"><circle cx="218" cy="260" r="12"/><circle cx="422" cy="260" r="12"/></g>
    <path d="M282 292h76l-14 70h-48Z" fill="#fff0cd" stroke="#a86b35" stroke-width="5"/>
    <path d="M295 291l-14-32 29 19 10-35 10 35 29-19-14 32Z" fill="#ffd995" stroke="#a86b35" stroke-width="4"/>
    <rect x="257" y="354" width="126" height="22" rx="11" fill="#b86e5d" opacity=".55"/>
  </g>
</svg>
