<svg xmlns="http://www.w3.org/2000/svg" viewBox="0 0 640 520">
  <defs>
    <linearGradient id="bg" x1="0" y1="0" x2="1" y2="1"><stop offset="0" stop-color="#fffaf6"/><stop offset="1" stop-color="#ffddd5"/></linearGradient>
    <linearGradient id="shoe" x1="0" y1="0" x2="1" y2="1"><stop offset="0" stop-color="#ffdadd"/><stop offset=".55" stop-color="#eda3ad"/><stop offset="1" stop-color="#d57785"/></linearGradient>
    <filter id="shadow" x="-20%" y="-20%" width="140%" height="140%"><feDropShadow dx="0" dy="12" stdDeviation="14" flood-color="#9b515a" flood-opacity=".22"/></filter>
  </defs>
  <rect width="640" height="520" rx="34" fill="url(#bg)"/>
  <path d="M70 392c148 50 361 45 500-2" fill="none" stroke="#e8ba91" stroke-width="4" opacity=".45"/>
  <g filter="url(#shadow)">
    <path d="M168 324c58 12 132 2 206-42 22 43 47 72 105 81 27 4 35 34 9 45-65 27-218 25-314 9-41-7-47-73-6-93Z" fill="url(#shoe)" stroke="#b96a6f" stroke-width="6"/>
    <path d="M367 283l38-122c7-22 37-19 40 4l18 134" fill="none" stroke="#bb6e72" stroke-width="13" stroke-linecap="round"/>
    <path d="M318 294c-38-42-15-83 18-72 8 28-1 51-18 72Zm16 0c35-44 75-35 75 1-28 18-53 14-75-1Z" fill="#ffd6da" stroke="#b96a6f" stroke-width="5"/>
    <path d="M232 330c33 6 69 1 110-20" fill="none" stroke="#fff4f3" stroke-width="8" stroke-linecap="round" opacity=".7"/>
    <g fill="#fff2f5" opacity=".9"><circle cx="282" cy="333" r="8"/><circle cx="313" cy="320" r="7"/><circle cx="345" cy="302" r="7"/></g>
    <path d="M428 300c32 20 62 26 94 19" fill="none" stroke="#fff4f3" stroke-width="8" stroke-linecap="round" opacity=".65"/>
    <path d="M494 408l42 5" stroke="#a65d62" stroke-width="8" stroke-linecap="round"/>
  </g>
</svg>
